<svg xmlns="http://www.w3.org/2000/svg" version="1.1" xmlns:xlink="http://www.w3.org/1999/xlink" xmlns:svgjs="http://svgjs.dev/svgjs" width="1000" height="1000" viewBox="0 0 1000 1000"><rect width="1000" height="1000" fill="#ffffff"></rect><g transform="matrix(0.7,0,0,0.7,149.57575770733092,417.18025609689965)"><svg viewBox="0 0 396 94" data-background-color="#0c1d36" preserveAspectRatio="xMidYMid meet" height="237" width="1000" xmlns="http://www.w3.org/2000/svg" xmlns:xlink="http://www.w3.org/1999/xlink"><g id="tight-bounds" transform="matrix(1,0,0,1,0.2400000744329418,-0.07380281890294782)"><svg viewBox="0 0 395.52 94.14760675566346" height="94.14760675566346" width="395.52"><g><svg viewBox="0 0 397.4975999999999 94.61834478944176" height="94.14760675566346" width="395.52"><g><svg viewBox="0 0 397.4975999999999 94.61834478944176" height="94.61834478944176" width="397.4975999999999"><g id="textblocktransform"><svg viewBox="0 0 397.4975999999999 94.61834478944176" height="94.61834478944176" width="397.4975999999999" id="textblock"><g><rect width="397.4975999999999" height="4.793854445780729" x="0" y="58.80533433843037" fill="#000000" opacity="1" stroke-width="0" stroke="transparent" fill-opacity="1" class="rect-o-0" data-fill-palette-color="primary" rx="1%" id="o-0" data-palette-color="#f9cc0b"></rect></g><g transform="matrix(1,0,0,1,0.9887999999999693,0)"><svg viewBox="0 0 395.52 53.15812360387192" height="53.15812360387192" width="395.52"><g transform="matrix(1,0,0,1,0,0)"><svg width="395.52" viewBox="2 -35.29999923706055 268.5799865722656 36.099998474121094" height="53.15812360387192" data-palette-color="#f9cc0b"><path d="M25.4-34.5L26.2-24.55 25.8-24.5 22.8-32.05Q22.35-33.2 21.83-33.55 21.3-33.9 20.1-33.9L20.1-33.9 9.95-33.9 9.95-18.55 17.2-18.55Q18.4-18.55 18.9-18.95 19.4-19.35 19.6-20.5L19.6-20.5 20.45-24.55 21.05-24.55 21.05-11.75 20.45-11.75 19.6-15.8Q19.4-16.95 18.9-17.35 18.4-17.75 17.2-17.75L17.2-17.75 9.95-17.75 9.95-0.8 14.85-0.4 14.85 0 2 0 2-0.4 6.1-0.8 6.1-33.7 2-34.1 2-34.5 25.4-34.5ZM29.7-34.1L29.7-34.5 41.75-34.5 41.75-34.1 37.65-33.7 37.65-0.8 41.75-0.4 41.75 0 29.7 0 29.7-0.4 33.8-0.8 33.8-33.7 29.7-34.1ZM58.2-33.95L58.2-0.8 52.8-0.4 52.8 0 67.45 0 67.45-0.4 62.05-0.8 62.05-33.95 69.34-33.95Q70.55-33.95 71.07-33.58 71.59-33.2 72.05-32.05L72.05-32.05 75.15-24.35 75.55-24.45 74.45-35.3 74.15-35.3Q73.05-34.8 72.27-34.65 71.5-34.5 70.3-34.5L70.3-34.5 51.05-34.5Q49.85-34.5 49.07-34.65 48.3-34.8 47.2-35.3L47.2-35.3 46.9-35.3 44.95-24.45 45.35-24.35 48.8-32.05Q49.3-33.2 49.85-33.58 50.4-33.95 51.6-33.95L51.6-33.95 58.2-33.95ZM102.39-34.5L103.19-24.55 102.79-24.5 99.79-32.05Q99.34-33.2 98.82-33.55 98.29-33.9 97.09-33.9L97.09-33.9 86.94-33.9 86.94-18.55 94.19-18.55Q95.39-18.55 95.89-18.95 96.39-19.35 96.59-20.5L96.59-20.5 97.44-24.55 98.04-24.55 98.04-11.75 97.44-11.75 96.59-15.8Q96.39-16.95 95.89-17.35 95.39-17.75 94.19-17.75L94.19-17.75 86.94-17.75 86.94-0.8 91.84-0.4 91.84 0 78.99 0 78.99-0.4 83.09-0.8 83.09-33.7 78.99-34.1 78.99-34.5 102.39-34.5ZM131.54-0.9L135.69-0.4 135.69 0 123.44 0 123.44-0.4 127.54-0.9 122.84-13.7 110.74-13.7 106.59-2.65Q106.39-2.1 106.39-1.75L106.39-1.75Q106.39-1.2 106.72-0.98 107.04-0.75 107.89-0.65L107.89-0.65 110.94-0.4 110.94 0 100.29 0 100.29-0.4 103.09-0.65Q104.34-0.75 104.87-1.15 105.39-1.55 105.79-2.65L105.79-2.65 118.04-35.3 118.94-35.3 131.54-0.9ZM111.04-14.5L122.54-14.5 116.94-29.75 116.74-29.75 111.04-14.5ZM154.04-18.2Q158.39-17.6 160.69-15.35 162.99-13.1 162.99-9.45L162.99-9.45Q162.99-5.45 160.21-2.73 157.44 0 151.69 0L151.69 0 136.94 0 136.94-0.4 141.04-0.8 141.04-33.7 136.94-34.1 136.94-34.5 149.39-34.5Q155.29-34.5 158.39-32.4 161.49-30.3 161.49-26.3L161.49-26.3Q161.49-23.1 159.54-21 157.59-18.9 154.04-18.4L154.04-18.4 154.04-18.2ZM149.24-33.9L144.89-33.9 144.89-18.55 150.69-18.55Q154.04-18.55 155.51-20.5 156.99-22.45 156.99-26.3L156.99-26.3Q156.99-33.9 149.24-33.9L149.24-33.9ZM150.49-0.6Q158.24-0.6 158.24-9.3L158.24-9.3Q158.24-13.85 156.29-15.9 154.34-17.95 150.49-17.95L150.49-17.95 144.89-17.95 144.89-0.6 150.49-0.6ZM197.34-0.4L198.03-0.4 198.03 0 192.88 0Q191.69 0 191.09-0.35 190.49-0.7 189.84-1.7L189.84-1.7 182.19-14.05Q181.49-15.2 181.01-15.48 180.53-15.75 179.34-15.75L179.34-15.75 175.63-15.75 175.63-0.8 179.99-0.4 179.99 0 167.69 0 167.69-0.4 171.78-0.8 171.78-33.7 167.69-34.1 167.69-34.5 180.34-34.5Q186.24-34.5 189.34-32.13 192.44-29.75 192.44-25.25L192.44-25.25Q192.44-21.75 190.53-19.5 188.63-17.25 185.03-16.4L185.03-16.4 185.09-16.4 194.24-2.1Q194.88-1.1 195.51-0.75 196.13-0.4 197.34-0.4L197.34-0.4ZM180.19-33.9L175.63-33.9 175.63-16.5 180.19-16.5Q184.19-16.5 186.11-18.63 188.03-20.75 188.03-25.15L188.03-25.15Q188.03-29.6 186.09-31.75 184.13-33.9 180.19-33.9L180.19-33.9ZM198.38-34.1L198.38-34.5 210.43-34.5 210.43-34.1 206.33-33.7 206.33-0.8 210.43-0.4 210.43 0 198.38 0 198.38-0.4 202.48-0.8 202.48-33.7 198.38-34.1ZM238.43-3.4Q236.98-1.8 234.85-0.85 232.73 0.1 230.48 0.1L230.48 0.1Q225.23 0.1 222.38-4.42 219.53-8.95 219.53-17.25L219.53-17.25Q219.53-25.6 222.38-30.15 225.23-34.7 230.53-34.7L230.53-34.7Q233.43-34.7 235.83-33.38 238.23-32.05 239.73-29.6L239.73-29.6Q241.23-27.1 241.93-23.25L241.93-23.25 242.63-23.45 242.13-34.7 241.48-34.7 240.28-32.3Q237.38-33.85 235-34.58 232.63-35.3 230.38-35.3L230.38-35.3Q226.08-35.3 222.48-32.9 218.88-30.5 216.81-26.35 214.73-22.2 214.73-17.25L214.73-17.25Q214.73-12.25 216.81-8.13 218.88-4 222.5-1.6 226.13 0.8 230.48 0.8L230.48 0.8Q232.93 0.8 235.56-0.15 238.18-1.1 240.43-2.75L240.43-2.75 242.13 0 242.78 0 242.78-11.5 242.13-11.6Q240.88-6.15 238.43-3.4L238.43-3.4ZM259.73 0.8Q262.83 0.8 265.3-0.5 267.78-1.8 269.18-4.08 270.58-6.35 270.58-9.25L270.58-9.25Q270.58-11.85 269.45-13.63 268.33-15.4 266.5-16.6 264.68-17.8 261.68-19.15L261.68-19.15Q258.33-20.7 256.5-21.8 254.68-22.9 253.65-24.4 252.63-25.9 252.63-28.1L252.63-28.1Q252.63-31.15 254.48-32.93 256.33-34.7 259.43-34.7L259.43-34.7Q264.58-34.7 267.08-29.55L267.08-29.55Q268.33-27 269.13-23.65L269.13-23.65 269.63-23.8 269.13-34.7 268.48-34.7 267.28-32.3Q265.23-33.9 263.45-34.6 261.68-35.3 259.63-35.3L259.63-35.3Q256.68-35.3 254.35-34.08 252.03-32.85 250.7-30.68 249.38-28.5 249.38-25.75L249.38-25.75Q249.38-23.05 250.6-21.18 251.83-19.3 253.68-18.13 255.53-16.95 258.28-15.75L258.28-15.75Q261.63-14.3 263.48-13.2 265.33-12.1 266.4-10.55 267.48-9 267.48-6.75L267.48-6.75Q267.48-3.55 265.45-1.68 263.43 0.2 259.83 0.2L259.83 0.2Q255.63 0.2 253.08-2.65L253.08-2.65Q251.83-4.05 251.05-5.95 250.28-7.85 249.53-11.25L249.53-11.25 249.08-11.15 249.73 0.8 250.38 0.8 251.43-1.95Q252.98-0.65 255.18 0.08 257.38 0.8 259.73 0.8L259.73 0.8Z" opacity="1" transform="matrix(1,0,0,1,0,0)" fill="#000000" class="undefined-text-0" data-fill-palette-color="primary" id="text-0"></path></svg></g></svg></g><g transform="matrix(1,0,0,1,0,69.24639951876955)"><svg viewBox="0 0 395.52 25.371945270672217" height="25.371945270672217" width="395.52"><g transform="matrix(1,0,0,1,0,0)"><svg width="395.52" viewBox="5.050000190734863 -31.950000762939453 504.2400207519531 32.35000228881836" height="25.371945270672217" data-palette-color="#f9cc0b"><path d="M13.85-29.7L7.7-29.65 7.6-17 13.45-16.95 18.55-17.05 18.8-16.75 18.5-14.75 7.6-14.8 7.55-9.85 7.65 0 5.05 0 5.2-9.7 5.05-31.95 21.05-31.95 21.3-31.65 21-29.55 13.85-29.7ZM34.1-24.75L43.2 0 40.65 0 40.1-2.25 38.25-7.2 26.45-7.2 24.5-2.35 23.85 0 21.35 0 31.3-24.75 34.1-24.75ZM32.3-9.2L37.5-9.25 32.75-22.1 32.5-22.1 27.3-9.25 32.3-9.2ZM60-12.9Q65.75-11.95 65.75-6.9L65.75-6.9Q65.75-3.45 63.12-1.68 60.5 0.1 55.5 0.1L55.5 0.1Q51.75 0.1 50 0L50 0 50.1-7.5 50-24.75 56.6-24.8Q60.1-24.8 62.05-23.28 64-21.75 64-18.9L64-18.9Q64-14.5 60-12.9L60-12.9ZM61.4-18.65Q61.4-20.7 60.05-21.75 58.7-22.8 56.1-22.8L56.1-22.8 52.45-22.8 52.4-13.8 57.25-13.7Q61.4-14.45 61.4-18.65L61.4-18.65ZM55.65-1.8Q59.3-1.8 61.27-3.15 63.25-4.5 63.25-7L63.25-7Q63.25-11.15 57.7-11.75L57.7-11.75 52.35-11.65 52.35-7.7 52.4-1.95Q54.05-1.8 55.65-1.8L55.65-1.8ZM82.79-10.1Q85.94-5.35 89.84-0.6L89.84-0.6 89.84-0.25Q88.89 0.15 87.64 0.3L87.64 0.3 87.19 0.05Q83.49-4.95 80.69-9.55L80.69-9.55 75.59-9.5 75.59-7.7 75.64 0 73.19 0 73.29-7.5 73.19-24.75 80.49-24.8Q84.29-24.8 86.34-22.98 88.39-21.15 88.39-17.8L88.39-17.8Q88.39-15.15 86.94-13.15 85.49-11.15 82.79-10.1L82.79-10.1ZM75.69-22.7L75.59-11.6 80.79-11.5Q83.29-12.15 84.57-13.7 85.84-15.25 85.84-17.6L85.84-17.6Q85.84-22.5 80.09-22.8L80.09-22.8 75.69-22.7ZM99.79-24.75L99.69-7.7 99.74 0 97.29 0 97.39-7.5 97.29-24.75 99.79-24.75ZM117.89-24.95Q121.99-24.95 125.09-23L125.09-23 124.59-20.75 124.19-20.65Q122.89-21.7 121.21-22.28 119.54-22.85 117.69-22.85L117.69-22.85Q113.44-22.85 111.21-20.2 108.99-17.55 108.99-12.4L108.99-12.4Q108.99-7.25 111.16-4.55 113.34-1.85 117.44-1.85L117.44-1.85Q119.29-1.85 121.16-2.5 123.04-3.15 124.59-4.3L124.59-4.3 124.94-4.15 124.74-1.9Q121.29 0.25 117.39 0.25L117.39 0.25Q112.09 0.25 109.24-3 106.39-6.25 106.39-12.25L106.39-12.25Q106.39-18.35 109.39-21.65 112.39-24.95 117.89-24.95L117.89-24.95ZM138.54-24.9Q141.44-24.9 144.14-23.75L144.14-23.75 143.74-21.35 143.29-21.25Q140.79-22.95 138.29-22.95L138.29-22.95Q135.79-22.95 134.31-21.58 132.84-20.2 132.84-18.5L132.84-18.5Q132.84-16.85 134.16-15.85 135.49-14.85 138.19-13.7L138.19-13.7Q140.44-12.65 141.74-11.88 143.04-11.1 143.99-9.83 144.94-8.55 144.94-6.7L144.94-6.7Q144.94-4.85 143.91-3.28 142.89-1.7 140.99-0.75 139.09 0.2 136.59 0.2L136.59 0.2Q134.89 0.2 133.09-0.23 131.29-0.65 129.79-1.5L129.79-1.5 130.04-4.05 130.39-4.2Q131.69-3 133.46-2.38 135.24-1.75 136.84-1.75L136.84-1.75Q139.34-1.75 140.91-3.13 142.49-4.5 142.49-6.35L142.49-6.35Q142.49-8.1 141.16-9.13 139.84-10.15 137.04-11.45L137.04-11.45Q134.89-12.45 133.56-13.23 132.24-14 131.31-15.25 130.39-16.5 130.39-18.3L130.39-18.3Q130.39-20.15 131.41-21.65 132.44-23.15 134.29-24.03 136.14-24.9 138.54-24.9L138.54-24.9ZM176.08-24.75L176.23-24.45 176.03-22.45 171.58-22.65 168.48-22.65 168.38-7.7 168.48 0 166.03 0 166.08-7.5 166.03-22.65 162.98-22.65 158.43-22.45 158.23-22.7 158.43-24.75 176.08-24.75ZM202.73-24.75L202.68-7.7 202.73 0 200.28 0 200.38-7.5 200.38-11.4 185.33-11.4 185.33-7.7 185.38 0 182.93 0 183.03-7.5 182.93-24.75 185.43-24.75 185.38-13.6 200.33-13.6 200.28-24.75 202.73-24.75ZM221.83-24.75L230.93 0 228.38 0 227.83-2.25 225.98-7.2 214.18-7.2 212.23-2.35 211.58 0 209.08 0 219.03-24.75 221.83-24.75ZM220.03-9.2L225.23-9.25 220.48-22.1 220.23-22.1 215.03-9.25 220.03-9.2ZM249.62-24.75L249.77-24.45 249.57-22.45 245.12-22.65 242.02-22.65 241.92-7.7 242.02 0 239.57 0 239.62-7.5 239.57-22.65 236.52-22.65 231.97-22.45 231.77-22.7 231.97-24.75 249.62-24.75ZM267.82-31.95L267.72-9.85 267.82 0 265.22 0 265.32-9.7 265.22-31.95 267.82-31.95ZM285.52-31.95L271.67-17Q278.52-8.4 286.37-0.55L286.37-0.55 286.37-0.2Q285.62 0.1 284.02 0.4L284.02 0.4 283.67 0.25Q275.37-8.45 268.82-16.85L268.82-16.85 268.82-17.05 280.32-29.4 282.42-31.95 285.52-31.95ZM305.62-2.15L305.87-1.9 305.57 0 291.47 0 291.57-7.5 291.47-24.75 305.57-24.75 305.77-24.45 305.52-22.55 299.37-22.7 293.97-22.7 293.92-13.8 299.02-13.75 303.42-13.85 303.57-13.55 303.37-11.6 298.82-11.7 293.87-11.65 293.87-7.7 293.92-2.05 299.02-2.05 305.62-2.15ZM326.81-2.15L327.06-1.9 326.76 0 312.66 0 312.76-7.5 312.66-24.75 326.76-24.75 326.96-24.45 326.71-22.55 320.56-22.7 315.16-22.7 315.11-13.8 320.21-13.75 324.61-13.85 324.76-13.55 324.56-11.6 320.01-11.7 315.06-11.65 315.06-7.7 315.11-2.05 320.21-2.05 326.81-2.15ZM341.16-24.8Q344.96-24.8 347.01-22.95 349.06-21.1 349.06-17.65L349.06-17.65Q349.06-13.55 346.56-11.28 344.06-9 339.56-9L339.56-9 336.26-9 336.26-7.7 336.31 0 333.86 0 333.96-7.5 333.86-24.75 341.16-24.8ZM340.81-11Q343.56-11.4 345.04-13.05 346.51-14.7 346.51-17.45L346.51-17.45Q346.51-20 345.06-21.35 343.61-22.7 340.76-22.8L340.76-22.8 336.36-22.75 336.26-11.1 340.81-11ZM373.76-11.9L373.71-9.55 373.81 0 371.21 0 371.31-9.55 371.26-11.8 361.16-31.95 364.06-31.95 364.66-30.4 372.46-14.9 372.76-14.9 381.26-30.35 381.91-31.95 384.76-31.95 373.76-11.9ZM398.35-25Q403.65-25 406.5-21.83 409.35-18.65 409.35-12.85L409.35-12.85Q409.35-6.55 406.33-3.15 403.3 0.25 397.75 0.25L397.75 0.25Q392.45 0.25 389.58-3 386.7-6.25 386.7-12.2L386.7-12.2Q386.7-18.35 389.73-21.68 392.75-25 398.35-25L398.35-25ZM398.15-22.85Q389.25-22.85 389.25-12.5L389.25-12.5Q389.25-1.85 397.85-1.85L397.85-1.85Q402.25-1.85 404.55-4.5 406.85-7.15 406.85-12.45L406.85-12.45Q406.85-22.85 398.15-22.85L398.15-22.85ZM435.15-24.75L435.05-12.1 435.05-8.75Q435.15-4.5 432.6-2.15 430.05 0.2 425.4 0.2L425.4 0.2Q420.8 0.2 418.35-2.13 415.9-4.45 415.95-8.75L415.95-8.75 416-12.4 415.95-24.75 418.45-24.75 418.3-9.05Q418.25-5.55 420.1-3.73 421.95-1.9 425.5-1.9L425.5-1.9Q429.05-1.9 430.9-3.73 432.75-5.55 432.75-9.05L432.75-9.05 432.65-24.75 435.15-24.75ZM461.6-29.7L455.45-29.65 455.35-17 461.2-16.95 466.3-17.05 466.55-16.75 466.25-14.75 455.35-14.8 455.3-9.85 455.4 0 452.8 0 452.95-9.7 452.8-31.95 468.8-31.95 469.05-31.65 468.75-29.55 461.6-29.7ZM476.29-24.75L476.19-7.7 476.24 0 473.79 0 473.89-7.5 473.79-24.75 476.29-24.75ZM500.19-24.75L500.34-24.45 500.14-22.45 495.69-22.65 492.59-22.65 492.49-7.7 492.59 0 490.14 0 490.19-7.5 490.14-22.65 487.09-22.65 482.54-22.45 482.34-22.7 482.54-24.75 500.19-24.75ZM508.99-25.2L509.29-24.9 508.64-7.45 507.09-7.3 506.79-7.65 506.99-24.85 507.24-25.15 508.99-25.2ZM507.54-2.95Q508.29-2.95 508.69-2.53 509.09-2.1 509.09-1.4L509.09-1.4Q509.09-0.7 508.66-0.25 508.24 0.2 507.49 0.2L507.49 0.2Q506.79 0.2 506.36-0.23 505.94-0.65 505.94-1.35L505.94-1.35Q505.94-2.05 506.39-2.5 506.84-2.95 507.54-2.95L507.54-2.95Z" opacity="1" transform="matrix(1,0,0,1,0,0)" fill="#000000" class="undefined-text-1" data-fill-palette-color="secondary" id="text-1"></path></svg></g></svg></g></svg></g></svg></g></svg></g><defs></defs></svg><rect width="395.52" height="94.14760675566346" fill="none" stroke="none" visibility="hidden"></rect></g></svg></g></svg>